<svg width="24" height="30" viewBox="0 0 24 30" fill="none" xmlns="http://www.w3.org/2000/svg"><path d="M15.5 24.75C15.5 27.0972 13.5972 29 11.25 29C8.90278 29 7 27.0972 7 24.75C7 22.4028 8.90278 20.5 11.25 20.5C13.5972 20.5 15.5 22.4028 15.5 24.75Z" stroke="#AFAFAF" stroke-width="2"/><path fill-rule="evenodd" clip-rule="evenodd" d="M16.4748 8.90283C16.4917 8.68744 16.5003 8.46972 16.5003 8.25C16.5003 7.77994 16.461 7.31907 16.3855 6.87049C16.7865 6.79144 17.2011 6.75 17.6253 6.75C21.1461 6.75 24.0003 9.60418 24.0003 13.125C24.0003 16.6458 21.1461 19.5 17.6253 19.5C15.0219 19.5 12.783 17.9394 11.793 15.7027C12.4109 15.4085 12.9865 15.0396 13.508 14.6079C14.1155 16.2943 15.7296 17.5 17.6253 17.5C20.0415 17.5 22.0003 15.5412 22.0003 13.125C22.0003 10.7087 20.0415 8.75 17.6253 8.75C17.2271 8.75 16.8414 8.80318 16.4748 8.90283Z" fill="#AFAFAF"/><path d="M15.5 8.24998C15.5 12.254 12.254 15.5 8.24998 15.5C4.24593 15.5 1 12.254 1 8.24998C1 4.24593 4.24593 1 8.24998 1C12.254 1 15.5 4.24593 15.5 8.24998Z" stroke="#AFAFAF" stroke-width="2"/></svg>